<?xml version="1.0" encoding="UTF-8" standalone="no"?>
<!DOCTYPE svg PUBLIC "-//W3C//DTD SVG 1.1//EN"
 "http://www.w3.org/Graphics/SVG/1.1/DTD/svg11.dtd">
<!-- Generated by graphviz version 2.26.3 (20100126.1600)
 -->
<!-- Title: controllers_diagram Pages: 1 -->
<svg width="722pt" height="592pt"
 viewBox="0.00 0.00 722.00 592.42" xmlns="http://www.w3.org/2000/svg" xmlns:xlink="http://www.w3.org/1999/xlink">
<g id="graph1" class="graph" transform="scale(1 1) rotate(0) translate(4 588.418)">
<title>controllers_diagram</title>
<polygon fill="white" stroke="white" points="-4,5 -4,-588.418 719,-588.418 719,5 -4,5"/>
<!-- _diagram_info -->
<g id="node1" class="node"><title>_diagram_info</title>
<text text-anchor="start" x="471" y="-120.3" font-family="Times Roman,serif" font-size="13.00">Controllers diagram</text>
<text text-anchor="start" x="471" y="-103.3" font-family="Times Roman,serif" font-size="13.00">Date: Aug 08 2014 &#45; 10:12</text>
<text text-anchor="start" x="471" y="-86.3" font-family="Times Roman,serif" font-size="13.00">Migration version: 20140509194909</text>
<text text-anchor="start" x="471" y="-69.3" font-family="Times Roman,serif" font-size="13.00">Generated by RailRoady 1.1.2</text>
<text text-anchor="start" x="471" y="-52.3" font-family="Times Roman,serif" font-size="13.00">http://railroady.prestonlee.com</text>
</g>
<!-- ApplicationController -->
<g id="node2" class="node"><title>ApplicationController</title>
<polyline fill="none" stroke="black" points="13,-220.466 157,-220.466 "/>
<path fill="none" stroke="black" d="M157,-220.466C163,-220.466 169,-226.466 169,-232.466"/>
<polyline fill="none" stroke="black" points="169,-232.466 169,-310.466 "/>
<path fill="none" stroke="black" d="M169,-310.466C169,-316.466 163,-322.466 157,-322.466"/>
<polyline fill="none" stroke="black" points="157,-322.466 13,-322.466 "/>
<path fill="none" stroke="black" d="M13,-322.466C7,-322.466 1,-316.466 1,-310.466"/>
<polyline fill="none" stroke="black" points="1,-310.466 1,-232.466 "/>
<path fill="none" stroke="black" d="M1,-232.466C1,-226.466 7,-220.466 13,-220.466"/>
<text text-anchor="middle" x="85" y="-305.866" font-family="Times Roman,serif" font-size="14.00">ApplicationController</text>
<polyline fill="none" stroke="black" points="1,-296.466 169,-296.466 "/>
<polyline fill="none" stroke="black" points="1,-272.466 169,-272.466 "/>
<text text-anchor="start" x="9" y="-255.866" font-family="Times Roman,serif" font-size="14.00">dw_excepton_handler</text>
<polyline fill="none" stroke="black" points="1,-246.466 169,-246.466 "/>
<text text-anchor="start" x="9" y="-229.866" font-family="Times Roman,serif" font-size="14.00">_layout</text>
</g>
<!-- DiskServiceController -->
<g id="node3" class="node"><title>DiskServiceController</title>
<polyline fill="none" stroke="black" points="279.286,-400.61 421.286,-400.61 "/>
<path fill="none" stroke="black" d="M421.286,-400.61C427.286,-400.61 433.286,-406.61 433.286,-412.61"/>
<polyline fill="none" stroke="black" points="433.286,-412.61 433.286,-508.61 "/>
<path fill="none" stroke="black" d="M433.286,-508.61C433.286,-514.61 427.286,-520.61 421.286,-520.61"/>
<polyline fill="none" stroke="black" points="421.286,-520.61 279.286,-520.61 "/>
<path fill="none" stroke="black" d="M279.286,-520.61C273.286,-520.61 267.286,-514.61 267.286,-508.61"/>
<polyline fill="none" stroke="black" points="267.286,-508.61 267.286,-412.61 "/>
<path fill="none" stroke="black" d="M267.286,-412.61C267.286,-406.61 273.286,-400.61 279.286,-400.61"/>
<text text-anchor="middle" x="350.286" y="-504.01" font-family="Times Roman,serif" font-size="14.00">DiskServiceController</text>
<polyline fill="none" stroke="black" points="267.286,-494.61 433.286,-494.61 "/>
<text text-anchor="start" x="275.286" y="-478.01" font-family="Times Roman,serif" font-size="14.00">check_label</text>
<text text-anchor="start" x="275.286" y="-460.01" font-family="Times Roman,serif" font-size="14.00">get_all_devices</text>
<polyline fill="none" stroke="black" points="267.286,-450.61 433.286,-450.61 "/>
<polyline fill="none" stroke="black" points="267.286,-426.61 433.286,-426.61 "/>
<text text-anchor="start" x="275.286" y="-410.01" font-family="Times Roman,serif" font-size="14.00">_layout</text>
</g>
<!-- ApplicationController&#45;&gt;DiskServiceController -->
<g id="edge2" class="edge"><title>ApplicationController&#45;&gt;DiskServiceController</title>
<path fill="none" stroke="black" d="M156.79,-322.651C190.856,-346.939 231.758,-376.102 267.163,-401.345"/>
</g>
<!-- DiskWizardsController -->
<g id="node4" class="node"><title>DiskWizardsController</title>
<polyline fill="none" stroke="black" points="212.266,-1.5 360.266,-1.5 "/>
<path fill="none" stroke="black" d="M360.266,-1.5C366.266,-1.5 372.266,-7.5 372.266,-13.5"/>
<polyline fill="none" stroke="black" points="372.266,-13.5 372.266,-325.5 "/>
<path fill="none" stroke="black" d="M372.266,-325.5C372.266,-331.5 366.266,-337.5 360.266,-337.5"/>
<polyline fill="none" stroke="black" points="360.266,-337.5 212.266,-337.5 "/>
<path fill="none" stroke="black" d="M212.266,-337.5C206.266,-337.5 200.266,-331.5 200.266,-325.5"/>
<polyline fill="none" stroke="black" points="200.266,-325.5 200.266,-13.5 "/>
<path fill="none" stroke="black" d="M200.266,-13.5C200.266,-7.5 206.266,-1.5 212.266,-1.5"/>
<text text-anchor="middle" x="286.266" y="-320.9" font-family="Times Roman,serif" font-size="14.00">DiskWizardsController</text>
<polyline fill="none" stroke="black" points="200.266,-311.5 372.266,-311.5 "/>
<text text-anchor="start" x="208.266" y="-294.9" font-family="Times Roman,serif" font-size="14.00">clear_mode</text>
<text text-anchor="start" x="208.266" y="-276.9" font-family="Times Roman,serif" font-size="14.00">confirmation</text>
<text text-anchor="start" x="208.266" y="-258.9" font-family="Times Roman,serif" font-size="14.00">debug_info</text>
<text text-anchor="start" x="208.266" y="-240.9" font-family="Times Roman,serif" font-size="14.00">disk_wizard</text>
<text text-anchor="start" x="208.266" y="-222.9" font-family="Times Roman,serif" font-size="14.00">done</text>
<text text-anchor="start" x="208.266" y="-204.9" font-family="Times Roman,serif" font-size="14.00">error</text>
<text text-anchor="start" x="208.266" y="-186.9" font-family="Times Roman,serif" font-size="14.00">manage_disk</text>
<text text-anchor="start" x="208.266" y="-168.9" font-family="Times Roman,serif" font-size="14.00">operations_progress</text>
<text text-anchor="start" x="208.266" y="-150.9" font-family="Times Roman,serif" font-size="14.00">process_disk</text>
<text text-anchor="start" x="208.266" y="-132.9" font-family="Times Roman,serif" font-size="14.00">progress</text>
<text text-anchor="start" x="208.266" y="-114.9" font-family="Times Roman,serif" font-size="14.00">select_device</text>
<text text-anchor="start" x="208.266" y="-96.9" font-family="Times Roman,serif" font-size="14.00">select_fs</text>
<text text-anchor="start" x="208.266" y="-78.9" font-family="Times Roman,serif" font-size="14.00">user_selections</text>
<text text-anchor="start" x="208.266" y="-60.9" font-family="Times Roman,serif" font-size="14.00">user_selections=</text>
<polyline fill="none" stroke="black" points="200.266,-51.5 372.266,-51.5 "/>
<polyline fill="none" stroke="black" points="200.266,-27.5 372.266,-27.5 "/>
<text text-anchor="start" x="208.266" y="-10.9" font-family="Times Roman,serif" font-size="14.00">_layout</text>
</g>
<!-- ApplicationController&#45;&gt;DiskWizardsController -->
<g id="edge4" class="edge"><title>ApplicationController&#45;&gt;DiskWizardsController</title>
<path fill="none" stroke="black" d="M169.189,-228.814C179.422,-223.63 189.888,-218.327 200.149,-213.129"/>
</g>
<!-- WelcomeController -->
<g id="node5" class="node"><title>WelcomeController</title>
<polyline fill="none" stroke="black" points="60.8606,-480.918 184.861,-480.918 "/>
<path fill="none" stroke="black" d="M184.861,-480.918C190.861,-480.918 196.861,-486.918 196.861,-492.918"/>
<polyline fill="none" stroke="black" points="196.861,-492.918 196.861,-570.918 "/>
<path fill="none" stroke="black" d="M196.861,-570.918C196.861,-576.918 190.861,-582.918 184.861,-582.918"/>
<polyline fill="none" stroke="black" points="184.861,-582.918 60.8606,-582.918 "/>
<path fill="none" stroke="black" d="M60.8606,-582.918C54.8606,-582.918 48.8606,-576.918 48.8606,-570.918"/>
<polyline fill="none" stroke="black" points="48.8606,-570.918 48.8606,-492.918 "/>
<path fill="none" stroke="black" d="M48.8606,-492.918C48.8606,-486.918 54.8606,-480.918 60.8606,-480.918"/>
<text text-anchor="middle" x="122.861" y="-566.318" font-family="Times Roman,serif" font-size="14.00">WelcomeController</text>
<polyline fill="none" stroke="black" points="48.8606,-556.918 196.861,-556.918 "/>
<text text-anchor="start" x="56.8606" y="-540.318" font-family="Times Roman,serif" font-size="14.00">index</text>
<polyline fill="none" stroke="black" points="48.8606,-530.918 196.861,-530.918 "/>
<polyline fill="none" stroke="black" points="48.8606,-506.918 196.861,-506.918 "/>
<text text-anchor="start" x="56.8606" y="-490.318" font-family="Times Roman,serif" font-size="14.00">_layout</text>
</g>
<!-- ApplicationController&#45;&gt;WelcomeController -->
<g id="edge6" class="edge"><title>ApplicationController&#45;&gt;WelcomeController</title>
<path fill="none" stroke="black" d="M92.4349,-322.612C99.0892,-368.389 108.794,-435.147 115.443,-480.888"/>
</g>
</g>
</svg>
