<?xml version="1.0" encoding="UTF-8" standalone="no"?>
<!DOCTYPE svg PUBLIC "-//W3C//DTD SVG 1.1//EN"
 "http://www.w3.org/Graphics/SVG/1.1/DTD/svg11.dtd">
<!-- Generated by graphviz version 2.26.3 (20100126.1600)
 -->
<!-- Title: models_diagram Pages: 1 -->
<svg width="588pt" height="246pt"
 viewBox="0.00 0.00 588.00 246.00" xmlns="http://www.w3.org/2000/svg" xmlns:xlink="http://www.w3.org/1999/xlink">
<g id="graph1" class="graph" transform="scale(1 1) rotate(0) translate(4 242)">
<title>models_diagram</title>
<polygon fill="white" stroke="white" points="-4,5 -4,-242 585,-242 585,5 -4,5"/>
<!-- _diagram_info -->
<g id="node1" class="node"><title>_diagram_info</title>
<text text-anchor="start" x="8" y="-221.8" font-family="Times Roman,serif" font-size="13.00">Models diagram</text>
<text text-anchor="start" x="8" y="-204.8" font-family="Times Roman,serif" font-size="13.00">Date: Aug 08 2014 &#45; 10:12</text>
<text text-anchor="start" x="8" y="-187.8" font-family="Times Roman,serif" font-size="13.00">Migration version: 20140509194909</text>
<text text-anchor="start" x="8" y="-170.8" font-family="Times Roman,serif" font-size="13.00">Generated by RailRoady 1.1.2</text>
<text text-anchor="start" x="8" y="-153.8" font-family="Times Roman,serif" font-size="13.00">http://railroady.prestonlee.com</text>
</g>
<!-- JobQueue -->
<g id="node2" class="node"><title>JobQueue</title>
<polygon fill="none" stroke="black" points="269.5,-28 269.5,-80 352.5,-80 352.5,-28 269.5,-28"/>
<text text-anchor="middle" x="311" y="-63.4" font-family="Times Roman,serif" font-size="14.00">JobQueue</text>
<polyline fill="none" stroke="black" points="269.5,-54 352.5,-54 "/>
<text text-anchor="middle" x="311" y="-37.4" font-family="Times Roman,serif" font-size="14.00"> </text>
</g>
<!-- Setting -->
<g id="node3" class="node"><title>Setting</title>
<polyline fill="none" stroke="black" points="436,-1 516,-1 "/>
<path fill="none" stroke="black" d="M516,-1C522,-1 528,-7 528,-13"/>
<polyline fill="none" stroke="black" points="528,-13 528,-95 "/>
<path fill="none" stroke="black" d="M528,-95C528,-101 522,-107 516,-107"/>
<polyline fill="none" stroke="black" points="516,-107 436,-107 "/>
<path fill="none" stroke="black" d="M436,-107C430,-107 424,-101 424,-95"/>
<polyline fill="none" stroke="black" points="424,-95 424,-13 "/>
<path fill="none" stroke="black" d="M424,-13C424,-7 430,-1 436,-1"/>
<text text-anchor="middle" x="476" y="-90.4" font-family="Times Roman,serif" font-size="14.00">Setting</text>
<polyline fill="none" stroke="black" points="424,-81 528,-81 "/>
<text text-anchor="start" x="432" y="-64.4" font-family="Times Roman,serif" font-size="14.00">id :integer</text>
<text text-anchor="start" x="432" y="-46.4" font-family="Times Roman,serif" font-size="14.00">name :string</text>
<text text-anchor="start" x="432" y="-28.4" font-family="Times Roman,serif" font-size="14.00">value :string</text>
<text text-anchor="start" x="432" y="-10.4" font-family="Times Roman,serif" font-size="14.00">kind :string</text>
</g>
<!-- Object -->
<g id="node4" class="node"><title>Object</title>
<ellipse fill="none" stroke="black" cx="311" cy="-191" rx="43.1335" ry="18.3848"/>
<text text-anchor="middle" x="311" y="-187.4" font-family="Times Roman,serif" font-size="14.00">Object</text>
</g>
<!-- Object&#45;&gt;JobQueue -->
<g id="edge2" class="edge"><title>Object&#45;&gt;JobQueue</title>
<path fill="none" stroke="black" d="M311,-172.238C311,-148.348 311,-106.945 311,-80.0167"/>
</g>
<!-- ActiveRecord::Base -->
<g id="node6" class="node"><title>ActiveRecord::Base</title>
<ellipse fill="none" stroke="black" cx="476" cy="-191" rx="104.151" ry="18.3848"/>
<text text-anchor="middle" x="476" y="-187.4" font-family="Times Roman,serif" font-size="14.00">ActiveRecord::Base</text>
</g>
<!-- ActiveRecord::Base&#45;&gt;Setting -->
<g id="edge4" class="edge"><title>ActiveRecord::Base&#45;&gt;Setting</title>
<path fill="none" stroke="black" d="M476,-172.238C476,-155.456 476,-130.033 476,-107.056"/>
</g>
</g>
</svg>
