<?xml version="1.0" encoding="UTF-8" standalone="no"?>
<!DOCTYPE svg PUBLIC "-//W3C//DTD SVG 1.1//EN"
 "http://www.w3.org/Graphics/SVG/1.1/DTD/svg11.dtd">
<!-- Generated by graphviz version 2.26.3 (20100126.1600)
 -->
<!-- Title: models_diagram Pages: 1 -->
<svg width="588pt" height="176pt"
 viewBox="0.00 0.00 588.00 176.00" xmlns="http://www.w3.org/2000/svg" xmlns:xlink="http://www.w3.org/1999/xlink">
<g id="graph1" class="graph" transform="scale(1 1) rotate(0) translate(4 172)">
<title>models_diagram</title>
<polygon fill="white" stroke="white" points="-4,5 -4,-172 585,-172 585,5 -4,5"/>
<!-- _diagram_info -->
<g id="node1" class="node"><title>_diagram_info</title>
<text text-anchor="start" x="8" y="-151.8" font-family="Times Roman,serif" font-size="13.00">Models diagram</text>
<text text-anchor="start" x="8" y="-134.8" font-family="Times Roman,serif" font-size="13.00">Date: Aug 08 2014 &#45; 10:12</text>
<text text-anchor="start" x="8" y="-117.8" font-family="Times Roman,serif" font-size="13.00">Migration version: 20140509194909</text>
<text text-anchor="start" x="8" y="-100.8" font-family="Times Roman,serif" font-size="13.00">Generated by RailRoady 1.1.2</text>
<text text-anchor="start" x="8" y="-83.8" font-family="Times Roman,serif" font-size="13.00">http://railroady.prestonlee.com</text>
</g>
<!-- JobQueue -->
<g id="node2" class="node"><title>JobQueue</title>
<polygon fill="none" stroke="black" points="352,-37 270,-37 270,-1 352,-1 352,-37"/>
<text text-anchor="middle" x="311" y="-15.4" font-family="Times Roman,serif" font-size="14.00">JobQueue</text>
</g>
<!-- Setting -->
<g id="node3" class="node"><title>Setting</title>
<ellipse fill="none" stroke="black" cx="476" cy="-19" rx="46.8775" ry="18.3848"/>
<text text-anchor="middle" x="476" y="-15.4" font-family="Times Roman,serif" font-size="14.00">Setting</text>
</g>
<!-- Object -->
<g id="node4" class="node"><title>Object</title>
<ellipse fill="none" stroke="black" cx="311" cy="-121" rx="43.1335" ry="18.3848"/>
<text text-anchor="middle" x="311" y="-117.4" font-family="Times Roman,serif" font-size="14.00">Object</text>
</g>
<!-- Object&#45;&gt;JobQueue -->
<g id="edge2" class="edge"><title>Object&#45;&gt;JobQueue</title>
<path fill="none" stroke="black" d="M311,-102.292C311,-83.7725 311,-55.6032 311,-37.2466"/>
</g>
<!-- ActiveRecord::Base -->
<g id="node6" class="node"><title>ActiveRecord::Base</title>
<ellipse fill="none" stroke="black" cx="476" cy="-121" rx="104.151" ry="18.3848"/>
<text text-anchor="middle" x="476" y="-117.4" font-family="Times Roman,serif" font-size="14.00">ActiveRecord::Base</text>
</g>
<!-- ActiveRecord::Base&#45;&gt;Setting -->
<g id="edge4" class="edge"><title>ActiveRecord::Base&#45;&gt;Setting</title>
<path fill="none" stroke="black" d="M476,-102.292C476,-83.8875 476,-55.9528 476,-37.5898"/>
</g>
</g>
</svg>
